<svg width="244" height="385" viewBox="0 0 244 385" fill="none" xmlns="http://www.w3.org/2000/svg">
<path opacity="0.05" d="M166.457 113.672C166.457 188.322 37.368 227.343 37.368 307.083C35.6695 325.745 40.7651 344.408 49.2578 361.374C49.2578 361.374 0 313.869 0 262.972C0 212.074 47.5593 135.727 47.5593 135.727C47.5593 169.659 61.1477 179.839 74.736 181.535H76.4345C91.7215 181.535 100.214 169.659 100.214 152.693C100.214 135.727 81.5302 118.761 81.5302 84.8295C81.5302 52.5943 122.295 0 122.295 0C151.171 33.9318 166.457 72.9534 166.457 113.672Z" fill="#2AF4FF"/>
<path opacity="0.05" d="M130.897 385C90.3107 385 59.8711 352.753 59.8711 313.718V312.021C59.8711 225.465 179.938 216.979 179.938 99.874C183.321 104.966 215.451 149.092 215.451 196.613C215.451 256.014 159.645 271.289 159.645 300.141C159.645 312.021 164.719 320.507 181.63 320.507C183.321 320.507 185.012 320.507 186.703 318.81C218.834 305.232 240.818 274.683 242.509 239.042C242.509 240.74 259.42 385 130.897 385Z" fill="#2AF4FF"/>
<path opacity="0.05" d="M183.258 320.115C184.945 320.115 186.633 320.115 188.32 318.421C171.445 323.503 109.004 338.751 109.004 294.702C109.004 240.489 201.821 228.63 201.821 182.888C201.821 154.087 195.071 125.286 179.883 99.874C183.258 104.957 215.322 149.005 215.322 196.441C215.322 255.737 159.632 270.984 159.632 299.785C161.319 311.644 168.069 320.115 183.258 320.115Z" fill="#2AD2FF"/>
<path opacity="0.05" d="M132.628 143.707C132.628 185.974 78.048 182.592 74.6367 180.902H79.7536C95.1044 180.902 103.632 169.067 103.632 152.16C103.632 135.254 84.8705 118.347 84.8705 84.5335C84.8705 52.4108 125.806 0 125.806 0C112.161 21.9787 105.338 45.6481 103.632 69.3175C103.632 108.203 132.628 111.584 132.628 143.707Z" fill="#2AD2FF"/>
</svg>
